<svg width="24" height="24" viewBox="0 0 24 24" xmlns="http://www.w3.org/2000/svg" xmlns:xlink="http://www.w3.org/1999/xlink">
    <defs>
        <linearGradient x1="50%" y1="100%" x2="50%" y2="0%" id="b">
            <stop stop-color="#B7B9C1" offset="0%"/>
            <stop stop-color="#91959C" offset="100%"/>
        </linearGradient>
        <linearGradient x1="50%" y1="100%" x2="50%" y2="0%" id="e">
            <stop stop-color="#3F424C" offset="0%"/>
            <stop stop-color="#46474F" offset="100%"/>
        </linearGradient>
        <linearGradient x1="76.873%" y1="94.505%" x2="24.205%" y2="9.016%" id="h">
            <stop stop-color="#BDBDBD" offset="0%"/>
            <stop stop-color="#888993" offset="100%"/>
        </linearGradient>
        <linearGradient x1="-11.047%" y1="0%" x2="92.129%" y2="100%" id="k">
            <stop stop-color="#FFF" offset="0%"/>
            <stop stop-color="#727682" offset="100%"/>
        </linearGradient>
        <path d="M12 0C5.373 0 0 5.373 0 12s5.373 12 12 12 12-5.373 12-12S18.627 0 12 0z" id="a"/>
        <path d="M0 11.23c0 6.201 5.028 11.229 11.23 11.229 6.201 0 11.229-5.028 11.229-11.23C22.459 5.028 17.43 0 11.229 0 5.028 0 0 5.028 0 11.23" id="d"/>
        <path d="M0 10.786c0 5.957 4.83 10.786 10.786 10.786 5.957 0 10.786-4.829 10.786-10.786S16.743 0 10.786 0 0 4.83 0 10.786" id="g"/>
        <path d="M10.974.684a2.06 2.06 0 0 1-3.057 0C6.618-.754 4.233.234 4.33 2.17A2.06 2.06 0 0 1 2.17 4.33C.234 4.233-.754 6.618.684 7.917a2.06 2.06 0 0 1 0 3.057C-.754 12.273.234 14.66 2.17 14.56a2.06 2.06 0 0 1 2.161 2.162c-.098 1.935 2.287 2.923 3.586 1.485a2.06 2.06 0 0 1 3.057 0c1.299 1.438 3.685.45 3.586-1.485a2.06 2.06 0 0 1 2.162-2.162c1.935.099 2.923-2.287 1.485-3.586a2.06 2.06 0 0 1 0-3.057c1.438-1.299.45-3.684-1.485-3.586A2.06 2.06 0 0 1 14.56 2.17C14.626.872 13.575 0 12.484 0a2.01 2.01 0 0 0-1.51.684" id="j"/>
    </defs>
    <g fill="none" fill-rule="evenodd">
        <g>
            <mask id="c" fill="#fff">
                <use xlink:href="#a"/>
            </mask>
            <path d="M12 0C5.373 0 0 5.373 0 12s5.373 12 12 12 12-5.373 12-12S18.627 0 12 0z" fill="url(#b)" mask="url(#c)"/>
        </g>
        <g transform="translate(.77 .77)">
            <mask id="f" fill="#fff">
                <use xlink:href="#d"/>
            </mask>
            <path d="M0 11.23c0 6.201 5.028 11.229 11.23 11.229 6.201 0 11.229-5.028 11.229-11.23C22.459 5.028 17.43 0 11.229 0 5.028 0 0 5.028 0 11.23" fill="url(#e)" mask="url(#f)"/>
        </g>
        <g transform="translate(1.214 1.214)">
            <mask id="i" fill="#fff">
                <use xlink:href="#g"/>
            </mask>
            <path d="M0 10.786c0 5.957 4.83 10.786 10.786 10.786 5.957 0 10.786-4.829 10.786-10.786S16.743 0 10.786 0 0 4.83 0 10.786" fill="url(#h)" mask="url(#i)"/>
        </g>
        <g transform="translate(2.554 2.554)">
            <mask id="l" fill="#fff">
                <use xlink:href="#j"/>
            </mask>
            <path d="M7.989 1.098c-1.237-1.37-3.51-.43-3.416 1.415a1.962 1.962 0 0 1-2.06 2.06C.669 4.479-.273 6.752 1.098 7.989c.863.78.863 2.134 0 2.913-1.37 1.238-.43 3.51 1.415 3.416a1.962 1.962 0 0 1 2.06 2.06c-.094 1.844 2.179 2.786 3.416 1.415a1.962 1.962 0 0 1 2.913 0c1.238 1.371 3.51.43 3.416-1.415a1.962 1.962 0 0 1 2.06-2.06c1.844.095 2.786-2.178 1.415-3.416a1.962 1.962 0 0 1 0-2.913c1.371-1.237.43-3.51-1.415-3.416a1.962 1.962 0 0 1-2.06-2.06c.064-1.237-.938-2.067-1.977-2.067-.511 0-1.031.2-1.439.652a1.962 1.962 0 0 1-2.913 0z" fill="url(#k)" mask="url(#l)"/>
        </g>
        <text font-family="Helvetica" font-size="12" letter-spacing="-.225" fill="#000">
                                        <tspan x="3.056" y="15.5">GE</tspan>
                                    </text>
    </g>
</svg>
