<svg width="24" height="24" viewBox="0 0 24 24" xmlns="http://www.w3.org/2000/svg">
    <g fill-rule="nonzero" fill="none">
        <path d="M12 24C5.374 24 0 18.626 0 12S5.374 0 12 0s12 5.374 12 12-5.374 12-12 12z" fill="#DB4437"/>
        <path d="M12.432 11.137v2.201h3.048c-.264 1.295-1.459 2.333-3.048 2.333-1.856 0-3.448-1.556-3.448-3.37 0-1.813 1.592-3.369 3.448-3.369.795 0 1.592.258 2.12.777l1.723-1.684C15.213 7.25 14.02 6.6 12.429 6.6 9.251 6.603 6.6 9.193 6.6 12.301 6.6 15.41 9.25 18 12.432 18 15.747 18 18 15.668 18 12.429c0-.388 0-.907-.133-1.295.002.003-5.435.003-5.435.003z" fill="#FFF"/>
    </g>
</svg>
