<svg width="24" height="24" xmlns="http://www.w3.org/2000/svg">
    <path d="M19.517 6.464A5.088 5.088 0 0 0 15.935 5a4.35 4.35 0 0 0-1.969.48c-.604.304-1.15.74-1.609 1.261a6.032 6.032 0 0 0-.358.45 6.014 6.014 0 0 0-.356-.45 5.404 5.404 0 0 0-1.61-1.261A4.355 4.355 0 0 0 8.062 5a5.065 5.065 0 0 0-3.579 1.464c-.458.454-.828.99-1.084 1.59a4.944 4.944 0 0 0 0 3.893 5.019 5.019 0 0 0 1.085 1.589c.459.45 6.91 6.208 7.517 6.464.604-.256 7.058-6.014 7.517-6.464a4.956 4.956 0 0 0 1.085-5.482 5.065 5.065 0 0 0-1.085-1.59z" fill="#444" stroke="#444" fill-rule="evenodd"/>
</svg>
